<?xml version="1.0" encoding="UTF-8"?>
<svg id="Layer_2" data-name="Layer 2" xmlns="http://www.w3.org/2000/svg" viewBox="0 0 40 40">
  <defs>
    <style>
      .cls-1, .cls-2, .cls-3 {
        stroke-width: 0px;
      }

      .cls-2 {
        fill: #ffbd3f;
      }

      .cls-3 {
        fill: #f2f2f2;
      }
    </style>
  </defs>
  <g id="Layer_1-2" data-name="Layer 1">
    <path class="cls-1" d="m36.98,19.49c0,9.66-7.84,17.49-17.5,17.48-9.66,0-17.49-7.84-17.48-17.5,0-9.66,7.84-17.49,17.5-17.48,9.65,0,17.47,7.83,17.48,17.48"/>
    <path class="cls-3" d="m17.21,32.94l3.41-3.41-6.57-6.57c-.28-.28-.58-.62-.74-1.01-.37-.78-.53-2,.37-2.9,1.11-1.11,2.58-.65,4.01.78l6.31,6.31,3.41-3.41-6.59-6.59c-.28-.28-.6-.69-.76-1.04-.44-.9-.42-2.03.39-2.83,1.13-1.13,2.6-.71,4.24.92l6.13,6.13,3.41-3.41-6.64-6.64c-3.36-3.36-6.52-3.25-8.69-1.08-.83.83-1.34,1.7-1.59,2.7-.23.92-.26,1.88-.09,2.81l-.05.05c-1.66-.69-3.55-.28-5,1.18-1.94,1.93-1.87,3.99-1.64,5.18l-.07.07-1.68-1.36-2.95,2.95c1.04.94,2.28,2.1,3.69,3.5,0,0,7.67,7.67,7.67,7.67Z"/>
    <path class="cls-2" d="m19.98,0C8.94,0,0,8.97,0,20.02c0,11.05,8.97,19.99,20.02,19.98,11.04,0,19.98-8.96,19.98-20v-.02C39.99,8.93,31.03,0,19.98,0Zm-.09,4.27c8.65,0,15.67,7,15.68,15.65v.02c0,8.65-7.01,15.66-15.67,15.66s-15.66-7.01-15.66-15.67c0-8.65,7-15.66,15.65-15.66h0Z"/>
  </g>
</svg>