<?xml version="1.0" encoding="UTF-8"?>
<svg id="Layer_2" data-name="Layer 2" xmlns="http://www.w3.org/2000/svg" viewBox="0 0 320.68 320.12">
  <defs>
    <style>
      .cls-1, .cls-2 {
        stroke-width: 0px;
        fill:#0AD06F;
      }

      .cls-2 {
        fill: #000;
      }
    </style>
  </defs>
  <g id="Layer_1-2" data-name="Layer 1">
    <g>
      <path class="cls-1" d="m232.63,197.5c6.84,32.04,13.56,63.54,20.5,96.08-25.92-14.87-51.03-29.28-76.4-43.84-16.93,23.41-33.58,46.43-50.89,70.38-6.82-32.22-13.41-63.38-20.14-95.22-35.46,7.27-67.5-.28-96.75-21.95,7.25-16.25,14.6-32.73,22.07-49.47-.84-.67-1.51-1.4-2.33-1.84C.2,136.68-9.49,95.13,10.72,65.88c12.72-18.41,30.85-28.58,52.07-33.5,26.8-6.22,53.18-5.22,78.57,6.57.27.12.64.02.96.02C166.89,10.57,197.97-2.77,235.35.48c29.5,2.57,49.93,20.76,68.33,43.06-4.26,3.36-8.38,6.62-12.51,9.87-11.27,8.84-22.54,17.69-33.83,26.51-5.13,4-5.86,4.41-9.66-1.7-10.36-16.7-36.8-12.86-46.33-.22-13.13,17.4-5.33,44.46,15.04,50.48,11.99,3.54,23.94-.36,31.18-11.01,3.42-5.03,5.75-10.82,8.29-16.4,1.16-2.54,2.2-4.4,5.45-3.6,19.36,4.78,38.72,9.5,58.08,14.27.44.11.8.54,1.29.88-7.95,28.6-18.76,55.21-46,71.38-12.83,7.62-26.8,11.45-42.05,13.52Zm-77.01-61.56c23.38,29.79,54.13,37.74,89.8,27.96,23.76-6.51,38.69-22.91,46.69-46.47-9.45-2.27-18.58-4.47-27.61-6.64-13.21,34.27-49.25,36.15-69.98,21.55-21.6-15.21-28.59-48.49-14.97-71.14,10.33-17.17,31.64-26.53,50.15-21.89,8.58,2.15,15.79,6.79,22.21,13.33,7.55-5.97,14.9-11.77,22.27-17.59-22.07-25.34-56.14-30.9-89.01-14.99-35.86,17.35-48.58,47.86-39.71,95.9-9.81-9.11-21.53-13.02-34.23-13.96-12.62-.93-25.29-1.08-37.92-1.84-4.79-.29-9.62-.97-14.27-2.12-5.81-1.43-8.44-5.42-8.32-11.44.14-7.32,4.67-11.59,10.72-14.32,10.26-4.63,21.24-6.08,32.23-4.41,9.75,1.48,19.28,4.39,28.79,6.63,2.48-8.23,5.15-17.08,7.89-26.16-.96-.47-2.12-1.1-3.32-1.61-14.28-6.07-29.3-7.63-44.55-6.37-17.17,1.42-33.48,5.81-47.05,17.2-9.56,8.02-15.91,18.08-16.54,30.78-1.1,22.27,11.54,37.99,34.42,41.7,11.59,1.88,23.54,1.49,35.3,2.41,8.44.66,16.97,1.15,25.23,2.84,9.1,1.87,12.35,10.17,8.24,18.58-3.25,6.64-9.07,10-15.68,12.26-13.7,4.7-27.53,4.13-41.29.42-6.82-1.84-13.48-4.26-20.5-6.5-3.83,8.63-7.55,17.05-11.32,25.55,1.46.86,2.28,1.44,3.16,1.86,34.94,16.29,68.54,12.69,100.6-7.58,9.1-5.75,15.29-14.54,17.34-25.34,1.15-6.05.86-12.37,1.22-18.6Z"/>
      <path class="cls-2" d="m155.62,135.95c-.36,6.23-.07,12.55-1.22,18.6-2.05,10.8-8.24,19.59-17.34,25.34-32.06,20.27-65.65,23.86-100.6,7.58-.89-.41-1.7-.99-3.16-1.86,3.76-8.5,7.49-16.91,11.32-25.55,7.02,2.25,13.68,4.66,20.5,6.5,13.76,3.71,27.59,4.28,41.29-.42,6.61-2.26,12.43-5.62,15.68-12.26,4.11-8.41.87-16.71-8.24-18.58-8.26-1.69-16.79-2.19-25.23-2.84-11.77-.91-23.71-.53-35.3-2.41-22.87-3.71-35.52-19.43-34.42-41.7.63-12.7,6.97-22.76,16.54-30.78,13.57-11.39,29.88-15.78,47.05-17.2,15.25-1.26,30.26.3,44.55,6.37,1.21.51,2.37,1.14,3.32,1.61-2.74,9.08-5.41,17.93-7.89,26.16-9.5-2.25-19.04-5.15-28.79-6.63-10.99-1.67-21.97-.22-32.23,4.41-6.05,2.73-10.58,7-10.72,14.32-.11,6.01,2.52,10.01,8.32,11.44,4.65,1.15,9.49,1.83,14.27,2.12,12.63.76,25.3.9,37.92,1.84,12.69.94,24.42,4.84,34.23,13.96-8.87-48.04,3.85-78.55,39.71-95.9,32.87-15.91,66.94-10.34,89.01,14.99-7.37,5.82-14.72,11.63-22.27,17.59-6.42-6.54-13.63-11.18-22.21-13.33-18.51-4.64-39.82,4.72-50.15,21.89-13.62,22.65-6.64,55.93,14.97,71.14,20.73,14.6,56.77,12.72,69.98-21.55,9.03,2.17,18.15,4.37,27.61,6.64-8,23.56-22.93,39.95-46.69,46.47-35.67,9.78-66.42,1.83-89.8-27.96Z"/>
    </g>
  </g>
</svg>